# xmcd CD database file
#
# Track frame offsets:
#	150
#	18527
#	36883
#	54931
#	69675
#	87951
#	103186
#	120402
#	138126
#	156906
#	171951
#	190905
#	208072
#	225289
#	241174
#	258440
#	275198
#	292295
#	310385
#	324859
#
# Disc length: 4537 seconds
#
# Revision: 0
# Processed by: cddbd v1.5.2PL0 Copyright (c) Steve Scherf et al.
# Submitted via: CDex 1.51
#
DISCID=2211b714
DTITLE=Various Artist - Salsa Mania 4 100% Salsa (Mezclado By Capitan Caribe DJ)
DYEAR=2006
DGENRE=Salsa
TTITLE0=Nino Segarra - Si Te Vas A Ir
TTITLE1=Ismael Miranda - Te Solte La Rienda
TTITLE2=Carlos Oliva - Corazòn Partio
TTITLE3=Willie Rosario - Rutina
TTITLE4=Orquesta La Palabra - Todo Se Derrumbo
TTITLE5=Jimmy Saa - La Pimera dama
TTITLE6=Jerry Galante - Galante Bogaloo
TTITLE7=Ruiz - Ella-Rey
TTITLE8=Conexiòn Salsera - Te Extraño,Te Olvido,Te Amo
TTITLE9=Edwin Rivera - Esa Mujer Me Vuelve Loco
TTITLE10=Pedro Bull - Pronosticos
TTITLE11=Hermanos Moreno - De Que Me Sirve Querete
TTITLE12=Joe King - Amiga Mia
TTITLE13=Joe Cuba - Viernes Social
TTITLE14=Dominic - Donde Quiera Que Estes
TTITLE15=Anhony Colòn - Cuando Apagues La Luz
TTITLE16=Paquito Guzman - El Que Mas Te Ha Querido
TTITLE17=Grupo Niche - Salao
TTITLE18=Ernie - Besame
TTITLE19=George Lamond - La Ultima Noche
EXTD=YEAR: 2006
EXTT0=
EXTT1=
EXTT2=
EXTT3=
EXTT4=
EXTT5=
EXTT6=
EXTT7=
EXTT8=
EXTT9=
EXTT10=
EXTT11=
EXTT12=
EXTT13=
EXTT14=
EXTT15=
EXTT16=
EXTT17=
EXTT18=
EXTT19=
PLAYORDER=
